# xmcd
#
# Track frame offsets: 
#        151
#        42513
#        67251
#        100857
#        123952
#        166015
#        194222
#        219297
#        269607
#        283782
#
# Disc length: 4094 seconds
#
# Revision: 4
# Processed by: cddbd v1.5.1PL2 Copyright (c) Steve Scherf et al.
# Submitted via: ExactAudioCopy v0.95b4
#
DISCID=9e0ffc0a
DTITLE=Anders Osborne - Live at Tipitina's
DYEAR=1998
DGENRE=R&B
TTITLE0=Oh Mama
TTITLE1=Louisiana Rain
TTITLE2=Pleasin You
TTITLE3=Hell In Harlem
TTITLE4=Blame It On A Few
TTITLE5=Tasteless
TTITLE6=Fine Line (Between Love and Madness)
TTITLE7=Trippin In Montana
TTITLE8=Jesus On The Mainline
TTITLE9=Dont Pray For Me
EXTD=
EXTT0=
EXTT1=
EXTT2=
EXTT3=
EXTT4=
EXTT5=
EXTT6=
EXTT7=
EXTT8=
EXTT9=
PLAYORDER=
